Chivo-Light.ufo
<glyph name="exclam" format="1">
  <advance width="269"/>
  <unicode hex="0021"/>
  <outline>
    <contour>
      <point x="78" y="0" type="line"/>
      <point x="143" y="0" type="line"/>
      <point x="143" y="69" type="line"/>
      <point x="78" y="69" type="line"/>
    </contour>
    <contour>
      <point x="90" y="141" type="line"/>
      <point x="131" y="141" type="line"/>
      <point x="135" y="339"/>
      <point x="143" y="686"/>
      <point x="143" y="686" type="curve" smooth="yes"/>
      <point x="79" y="686" type="line"/>
    </contour>
  </outline>
</glyph>
<glyph name="quotedbl" format="1">
  <advance width="364"/>
  <unicode hex="0022"/>
  <outline>
    <contour>
      <point x="75" y="414" type="line"/>
      <point x="105" y="414" type="line"/>
      <point x="116" y="539" type="line"/>
      <point x="116" y="686" type="line"/>
      <point x="64" y="686" type="line"/>
      <point x="64" y="539" type="line"/>
    </contour>
    <contour>
      <point x="208" y="414" type="line"/>
      <point x="238" y="414" type="line"/>
      <point x="249" y="539" type="line"/>
      <point x="249" y="686" type="line"/>
      <point x="197" y="686" type="line"/>
      <point x="197" y="539" type="line"/>
    </contour>
  </outline>
</glyph>
<glyph name="dollar" format="1">
  <advance width="546"/>
  <unicode hex="0024"/>
  <outline>
    <contour>
      <point x="248" y="-66" type="line"/>
      <point x="298" y="-66" type="line"/>
      <point x="288" y="19" type="line"/>
      <point x="415" y="21"/>
      <point x="520" y="70"/>
      <point x="520" y="203" type="curve" smooth="yes"/>
      <point x="520" y="449"/>
      <point x="101" y="336"/>
      <point x="101" y="515" type="curve" smooth="yes"/>
      <point x="101" y="598"/>
      <point x="178" y="625"/>
      <point x="275" y="625" type="curve" smooth="yes"/>
      <point x="372" y="625"/>
      <point x="450" y="592"/>
      <point x="450" y="515" type="curve" smooth="yes"/>
      <point x="450" y="494" type="line"/>
      <point x="500" y="494" type="line"/>
      <point x="500" y="506" type="line" smooth="yes"/>
      <point x="500" y="622"/>
      <point x="406" y="669"/>
      <point x="288" y="672" type="curve"/>
      <point x="298" y="762" type="line"/>
      <point x="248" y="762" type="line"/>
      <point x="258" y="672" type="line"/>
      <point x="144" y="668"/>
      <point x="48" y="622"/>
      <point x="48" y="517" type="curve" smooth="yes"/>
      <point x="48" y="276"/>
      <point x="467" y="395"/>
      <point x="467" y="200" type="curve" smooth="yes"/>
      <point x="467" y="95"/>
      <point x="381" y="69"/>
      <point x="274" y="69" type="curve" smooth="yes"/>
      <point x="167" y="69"/>
      <point x="82" y="97"/>
      <point x="82" y="193" type="curve" smooth="yes"/>
      <point x="82" y="201"/>
      <point x="83" y="218"/>
      <point x="83" y="218" type="curve" smooth="yes"/>
      <point x="32" y="218" type="line" smooth="yes"/>
      <point x="32" y="218"/>
      <point x="31" y="207"/>
      <point x="31" y="202" type="curve" smooth="yes"/>
      <point x="31" y="71"/>
      <point x="132" y="24"/>
      <point x="257" y="19" type="curve"/>
    </contour>
  </outline>
</glyph>
<glyph name="ampersand" format="1">
  <advance width="662"/>
  <unicode hex="0026"/>
  <outline>
    <contour>
      <point x="356" y="688" type="line"/>
      <point x="335" y="693"/>
      <point x="312" y="696"/>
      <point x="288" y="696" type="curve" smooth="yes"/>
      <point x="169" y="696"/>
      <point x="72" y="631"/>
      <point x="72" y="511" type="curve" smooth="yes"/>
      <point x="72" y="423"/>
      <point x="122" y="387"/>
      <point x="186" y="355" type="curve"/>
      <point x="186" y="353" type="line"/>
      <point x="113" y="332"/>
      <point x="58" y="286"/>
      <point x="58" y="192" type="curve" smooth="yes"/>
      <point x="58" y="71"/>
      <point x="163" y="0"/>
      <point x="288" y="0" type="curve" smooth="yes"/>
      <point x="475" y="0" type="line"/>
      <point x="475" y="329" type="line"/>
      <point x="594" y="329" type="line"/>
      <point x="594" y="375" type="line"/>
      <point x="475" y="375" type="line"/>
      <point x="475" y="538" type="line"/>
      <point x="442" y="538" type="line"/>
      <point x="424" y="375" type="line"/>
      <point x="293" y="375" type="line" smooth="yes"/>
      <point x="204" y="375"/>
      <point x="126" y="419"/>
      <point x="126" y="511" type="curve" smooth="yes"/>
      <point x="126" y="605"/>
      <point x="199" y="648"/>
      <point x="288" y="648" type="curve" smooth="yes"/>
      <point x="312" y="648"/>
      <point x="335" y="645"/>
      <point x="356" y="638" type="curve"/>
    </contour>
    <contour>
      <point x="424" y="329" type="line"/>
      <point x="424" y="46" type="line"/>
      <point x="288" y="46" type="line" smooth="yes"/>
      <point x="187" y="46"/>
      <point x="111" y="98"/>
      <point x="111" y="191" type="curve" smooth="yes"/>
      <point x="111" y="291"/>
      <point x="192" y="329"/>
      <point x="288" y="329" type="curve" smooth="yes"/>
    </contour>
  </outline>
</glyph>
<glyph name="quotesingle" format="1">
  <advance width="210"/>
  <unicode hex="0027"/>
  <outline>
    <contour>
      <point x="75" y="414" type="line"/>
      <point x="105" y="414" type="line"/>
      <point x="116" y="539" type="line"/>
      <point x="116" y="686" type="line"/>
      <point x="64" y="686" type="line"/>
      <point x="64" y="539" type="line"/>
    </contour>
  </outline>
</glyph>
<glyph name="parenleft" format="1">
  <advance width="289"/>
  <unicode hex="0028"/>
  <outline>
    <contour>
      <point x="49" y="110"/>
      <point x="106" y="-41"/>
      <point x="208" y="-157" type="curve"/>
      <point x="237" y="-157" type="line"/>
      <point x="162" y="-43"/>
      <point x="101" y="107"/>
      <point x="101" y="265" type="curve" smooth="yes"/>
      <point x="101" y="422"/>
      <point x="162" y="572"/>
      <point x="237" y="686" type="curve"/>
      <point x="208" y="686" type="line"/>
      <point x="106" y="570"/>
      <point x="49" y="419"/>
      <point x="49" y="265" type="curve" smooth="yes"/>
    </contour>
  </outline>
</glyph>
<glyph name="hyphen" format="1">
  <advance width="391"/>
  <unicode hex="002D"/>
  <outline>
    <contour>
      <point x="69" y="237" type="line"/>
      <point x="322" y="237" type="line"/>
      <point x="322" y="299" type="line"/>
      <point x="69" y="299" type="line"/>
    </contour>
  </outline>
</glyph>
<glyph name="period" format="1">
  <advance width="239"/>
  <unicode hex="002E"/>
  <outline>
    <contour>
      <point x="69" y="0" type="line"/>
      <point x="134" y="0" type="line"/>
      <point x="134" y="69" type="line"/>
      <point x="69" y="69" type="line"/>
    </contour>
  </outline>
</glyph>
<glyph name="one" format="1">
  <advance width="615"/>
  <unicode hex="0031"/>
  <outline>
    <contour>
      <point x="541" y="0" type="line"/>
      <point x="541" y="48" type="line"/>
      <point x="346" y="48" type="line"/>
      <point x="346" y="696" type="line"/>
      <point x="323" y="696" type="line"/>
      <point x="230" y="665"/>
      <point x="152" y="659"/>
      <point x="97" y="653" type="curve"/>
      <point x="97" y="619" type="line"/>
      <point x="292" y="619" type="line"/>
      <point x="292" y="48" type="line"/>
      <point x="97" y="48" type="line"/>
      <point x="97" y="0" type="line"/>
    </contour>
  </outline>
</glyph>
<glyph name="four" format="1">
  <advance width="615"/>
  <unicode hex="0034"/>
  <outline>
    <contour>
      <point x="396" y="235" type="line"/>
      <point x="107" y="235" type="line"/>
      <point x="167" y="301"/>
      <point x="285" y="521"/>
      <point x="342" y="696" type="curve"/>
      <point x="286" y="696" type="line"/>
      <point x="226" y="532"/>
      <point x="90" y="284"/>
      <point x="50" y="235" type="curve"/>
      <point x="50" y="187" type="line"/>
      <point x="396" y="187" type="line"/>
      <point x="396" y="0" type="line"/>
      <point x="452" y="0" type="line"/>
      <point x="452" y="187" type="line"/>
      <point x="534" y="187" type="line"/>
      <point x="534" y="235" type="line"/>
      <point x="452" y="235" type="line"/>
      <point x="452" y="573" type="line"/>
      <point x="433" y="573" type="line"/>
      <point x="424" y="550"/>
      <point x="406" y="512"/>
      <point x="396" y="492" type="curve"/>
    </contour>
  </outline>
</glyph>
<glyph name="five" format="1">
  <advance width="615"/>
  <unicode hex="0035"/>
  <outline>
    <contour>
      <point x="71" y="211" type="line"/>
      <point x="71" y="89"/>
      <point x="154" y="-10"/>
      <point x="292" y="-10" type="curve" smooth="yes"/>
      <point x="428" y="-10"/>
      <point x="513" y="93"/>
      <point x="513" y="215" type="curve" smooth="yes"/>
      <point x="513" y="349"/>
      <point x="425" y="441"/>
      <point x="299" y="441" type="curve" smooth="yes"/>
      <point x="246" y="441"/>
      <point x="193" y="421"/>
      <point x="151" y="382" type="curve"/>
      <point x="170" y="632" type="line"/>
      <point x="483" y="632" type="line"/>
      <point x="483" y="686" type="line"/>
      <point x="120" y="686" type="line"/>
      <point x="92" y="310" type="line"/>
      <point x="140" y="303" type="line"/>
      <point x="169" y="356"/>
      <point x="229" y="392"/>
      <point x="292" y="392" type="curve" smooth="yes"/>
      <point x="384" y="392"/>
      <point x="459" y="316"/>
      <point x="459" y="215" type="curve" smooth="yes"/>
      <point x="459" y="120"/>
      <point x="396" y="38"/>
      <point x="292" y="38" type="curve" smooth="yes"/>
      <point x="189" y="38"/>
      <point x="125" y="116"/>
      <point x="125" y="211" type="curve"/>
    </contour>
  </outline>
</glyph>
<glyph name="six" format="1">
  <advance width="615"/>
  <unicode hex="0036"/>
  <outline>
    <contour>
      <point x="133" y="481" type="line" smooth="yes"/>
      <point x="133" y="577"/>
      <point x="200" y="648"/>
      <point x="296" y="648" type="curve" smooth="yes"/>
      <point x="392" y="648"/>
      <point x="457" y="577"/>
      <point x="457" y="481" type="curve" smooth="yes"/>
      <point x="457" y="475" type="line"/>
      <point x="509" y="475" type="line"/>
      <point x="509" y="609"/>
      <point x="423" y="696"/>
      <point x="296" y="696" type="curve" smooth="yes"/>
      <point x="169" y="696"/>
      <point x="79" y="609"/>
      <point x="79" y="475" type="curve" smooth="yes"/>
      <point x="79" y="211" type="line" smooth="yes"/>
      <point x="79" y="77"/>
      <point x="173" y="-10"/>
      <point x="300" y="-10" type="curve" smooth="yes"/>
      <point x="427" y="-10"/>
      <point x="521" y="77"/>
      <point x="521" y="211" type="curve" smooth="yes"/>
      <point x="521" y="338"/>
      <point x="428" y="429"/>
      <point x="308" y="429" type="curve" smooth="yes"/>
      <point x="238" y="429"/>
      <point x="171" y="396"/>
      <point x="133" y="341" type="curve"/>
    </contour>
    <contour>
      <point x="133" y="214" type="line" smooth="yes"/>
      <point x="133" y="310"/>
      <point x="204" y="381"/>
      <point x="300" y="381" type="curve" smooth="yes"/>
      <point x="396" y="381"/>
      <point x="467" y="310"/>
      <point x="467" y="214" type="curve" smooth="yes"/>
      <point x="467" y="205" type="line" smooth="yes"/>
      <point x="467" y="109"/>
      <point x="396" y="38"/>
      <point x="300" y="38" type="curve" smooth="yes"/>
      <point x="204" y="38"/>
      <point x="133" y="109"/>
      <point x="133" y="205" type="curve" smooth="yes"/>
    </contour>
  </outline>
</glyph>
<glyph name="semicolon" format="1">
  <advance width="239"/>
  <unicode hex="003B"/>
  <outline>
    <contour>
      <point x="69" y="442" type="line"/>
      <point x="134" y="442" type="line"/>
      <point x="134" y="511" type="line"/>
      <point x="69" y="511" type="line"/>
    </contour>
    <contour>
      <point x="104" y="-101" type="line"/>
      <point x="134" y="11" type="line"/>
      <point x="134" y="69" type="line"/>
      <point x="69" y="69" type="line"/>
      <point x="69" y="0" type="line"/>
      <point x="93" y="0" type="line"/>
      <point x="93" y="0"/>
      <point x="71" y="-101"/>
      <point x="70" y="-101" type="curve"/>
    </contour>
  </outline>
</glyph>
<glyph name="equal" format="1">
  <advance width="615"/>
  <unicode hex="003D"/>
  <outline>
    <contour>
      <point x="555" y="328" type="line"/>
      <point x="555" y="386" type="line"/>
      <point x="55" y="386" type="line"/>
      <point x="55" y="328" type="line"/>
    </contour>
    <contour>
      <point x="555" y="120" type="line"/>
      <point x="555" y="178" type="line"/>
      <point x="55" y="178" type="line"/>
      <point x="55" y="120" type="line"/>
    </contour>
  </outline>
</glyph>
<glyph name="at" format="1">
  <advance width="885"/>
  <unicode hex="0040"/>
  <outline>
    <contour>
      <point x="579" y="234" type="line" smooth="yes"/>
      <point x="579" y="117"/>
      <point x="491" y="65"/>
      <point x="408" y="65" type="curve" smooth="yes"/>
      <point x="332" y="65"/>
      <point x="294" y="93"/>
      <point x="294" y="156" type="curve" smooth="yes"/>
      <point x="294" y="260"/>
      <point x="405" y="267"/>
      <point x="579" y="267" type="curve"/>
    </contour>
    <contour>
      <point x="790" y="133"/>
      <point x="731" y="66"/>
      <point x="667" y="66" type="curve" smooth="yes"/>
      <point x="639" y="66"/>
      <point x="628" y="77"/>
      <point x="628" y="105" type="curve" smooth="yes"/>
      <point x="628" y="379" type="line" smooth="yes"/>
      <point x="628" y="476"/>
      <point x="570" y="521"/>
      <point x="450" y="521" type="curve" smooth="yes"/>
      <point x="344" y="521"/>
      <point x="260" y="474"/>
      <point x="260" y="389" type="curve" smooth="yes"/>
      <point x="260" y="381"/>
      <point x="261" y="373"/>
      <point x="262" y="365" type="curve"/>
      <point x="310" y="365" type="line"/>
      <point x="310" y="380" type="line" smooth="yes"/>
      <point x="310" y="451"/>
      <point x="371" y="478"/>
      <point x="450" y="478" type="curve" smooth="yes"/>
      <point x="542" y="478"/>
      <point x="579" y="452"/>
      <point x="579" y="370" type="curve" smooth="yes"/>
      <point x="579" y="309" type="line"/>
      <point x="384" y="309"/>
      <point x="243" y="297"/>
      <point x="243" y="156" type="curve" smooth="yes"/>
      <point x="243" y="50"/>
      <point x="323" y="22"/>
      <point x="398" y="22" type="curve" smooth="yes"/>
      <point x="477" y="22"/>
      <point x="538" y="49"/>
      <point x="579" y="115" type="curve"/>
      <point x="579" y="60"/>
      <point x="595" y="23"/>
      <point x="669" y="23" type="curve" smooth="yes"/>
      <point x="741" y="23"/>
      <point x="843" y="97"/>
      <point x="843" y="320" type="curve" smooth="yes"/>
      <point x="843" y="588"/>
      <point x="676" y="697"/>
      <point x="453" y="697" type="curve" smooth="yes"/>
      <point x="229" y="697"/>
      <point x="38" y="580"/>
      <point x="38" y="262" type="curve" smooth="yes"/>
      <point x="38" y="-27"/>
      <point x="183" y="-153"/>
      <point x="418" y="-153" type="curve" smooth="yes"/>
      <point x="461" y="-153"/>
      <point x="541" y="-142"/>
      <point x="583" y="-126" type="curve"/>
      <point x="583" y="-70" type="line"/>
      <point x="547" y="-88"/>
      <point x="464" y="-102"/>
      <point x="418" y="-102" type="curve" smooth="yes"/>
      <point x="195" y="-102"/>
      <point x="91" y="20"/>
      <point x="91" y="261" type="curve" smooth="yes"/>
      <point x="91" y="521"/>
      <point x="230" y="646"/>
      <point x="452" y="646" type="curve" smooth="yes"/>
      <point x="651" y="646"/>
      <point x="790" y="551"/>
      <point x="790" y="321" type="curve" smooth="yes"/>
    </contour>
  </outline>
</glyph>
<glyph name="A" format="1">
  <advance width="652"/>
  <unicode hex="0041"/>
  <outline>
    <contour>
      <point x="563" y="0" type="line"/>
      <point x="622" y="0" type="line"/>
      <point x="338" y="686" type="line"/>
      <point x="288" y="686" type="line"/>
      <point x="4" y="0" type="line"/>
      <point x="60" y="0" type="line"/>
      <point x="130" y="170" type="line"/>
      <point x="492" y="170" type="line"/>
    </contour>
    <contour>
      <point x="309" y="612" type="line"/>
      <point x="313" y="612" type="line"/>
      <point x="472" y="219" type="line"/>
      <point x="150" y="219" type="line"/>
    </contour>
    <contour>
      <point x="617" y="10" type="move" name="ogonek"/>
    </contour>
    <contour>
      <point x="313" y="686" type="move" name="top"/>
    </contour>
  </outline>
</glyph>
<glyph name="C" format="1">
  <advance width="663"/>
  <unicode hex="0043"/>
  <outline>
    <contour>
      <point x="521" y="251" type="line"/>
      <point x="521" y="81"/>
      <point x="425" y="38"/>
      <point x="320" y="38" type="curve" smooth="yes"/>
      <point x="203" y="38"/>
      <point x="116" y="91"/>
      <point x="116" y="318" type="curve" smooth="yes"/>
      <point x="116" y="368" type="line" smooth="yes"/>
      <point x="116" y="595"/>
      <point x="203" y="648"/>
      <point x="320" y="648" type="curve" smooth="yes"/>
      <point x="425" y="648"/>
      <point x="521" y="606"/>
      <point x="521" y="434" type="curve"/>
      <point x="574" y="434" type="line"/>
      <point x="574" y="642"/>
      <point x="452" y="696"/>
      <point x="320" y="696" type="curve" smooth="yes"/>
      <point x="173" y="696"/>
      <point x="62" y="631"/>
      <point x="62" y="356" type="curve" smooth="yes"/>
      <point x="62" y="330" type="line" smooth="yes"/>
      <point x="62" y="55"/>
      <point x="173" y="-10"/>
      <point x="320" y="-10" type="curve" smooth="yes"/>
      <point x="452" y="-10"/>
      <point x="574" y="48"/>
      <point x="574" y="251" type="curve"/>
    </contour>
    <contour>
      <point x="332" y="686" type="move" name="top"/>
    </contour>
    <contour>
      <point x="332" y="0" type="move" name="bottom"/>
    </contour>
  </outline>
</glyph>
<glyph name="I" format="1">
  <advance width="364"/>
  <unicode hex="0049"/>
  <outline>
    <contour>
      <point x="53" y="637" type="line"/>
      <point x="132" y="637" type="line"/>
      <point x="132" y="49" type="line"/>
      <point x="53" y="49" type="line"/>
      <point x="53" y="0" type="line"/>
      <point x="265" y="0" type="line"/>
      <point x="265" y="49" type="line"/>
      <point x="186" y="49" type="line"/>
      <point x="186" y="637" type="line"/>
      <point x="265" y="637" type="line"/>
      <point x="265" y="686" type="line"/>
      <point x="53" y="686" type="line"/>
    </contour>
    <contour>
      <point x="248" y="10" type="move" name="ogonek"/>
    </contour>
    <contour>
      <point x="159" y="686" type="move" name="top"/>
    </contour>
  </outline>
</glyph>
<glyph name="M" format="1">
  <advance width="938"/>
  <unicode hex="004D"/>
  <outline>
    <contour>
      <point x="803" y="0" type="line"/>
      <point x="803" y="686" type="line"/>
      <point x="718" y="686" type="line"/>
      <point x="447" y="69" type="line"/>
      <point x="446" y="69" type="line"/>
      <point x="178" y="686" type="line"/>
      <point x="92" y="686" type="line"/>
      <point x="92" y="0" type="line"/>
      <point x="140" y="0" type="line"/>
      <point x="140" y="625" type="line"/>
      <point x="145" y="625" type="line"/>
      <point x="418" y="0" type="line"/>
      <point x="469" y="0" type="line"/>
      <point x="744" y="625" type="line"/>
      <point x="749" y="625" type="line"/>
      <point x="749" y="0" type="line"/>
    </contour>
  </outline>
</glyph>
<glyph name="O" format="1">
  <advance width="690"/>
  <unicode hex="004F"/>
  <outline>
    <contour>
      <point x="474" y="-10"/>
      <point x="593" y="55"/>
      <point x="593" y="330" type="curve" smooth="yes"/>
      <point x="593" y="356" type="line" smooth="yes"/>
      <point x="593" y="631"/>
      <point x="474" y="696"/>
      <point x="327" y="696" type="curve" smooth="yes"/>
      <point x="180" y="696"/>
      <point x="61" y="631"/>
      <point x="61" y="356" type="curve" smooth="yes"/>
      <point x="61" y="330" type="line" smooth="yes"/>
      <point x="61" y="55"/>
      <point x="180" y="-10"/>
      <point x="327" y="-10" type="curve" smooth="yes"/>
    </contour>
    <contour>
      <point x="210" y="38"/>
      <point x="115" y="91"/>
      <point x="115" y="318" type="curve" smooth="yes"/>
      <point x="115" y="368" type="line" smooth="yes"/>
      <point x="115" y="595"/>
      <point x="210" y="648"/>
      <point x="327" y="648" type="curve" smooth="yes"/>
      <point x="444" y="648"/>
      <point x="539" y="595"/>
      <point x="539" y="368" type="curve" smooth="yes"/>
      <point x="539" y="318" type="line" smooth="yes"/>
      <point x="539" y="91"/>
      <point x="444" y="38"/>
      <point x="327" y="38" type="curve" smooth="yes"/>
    </contour>
    <contour>
      <point x="325" y="686" type="move" name="top"/>
    </contour>
  </outline>
</glyph>
<glyph name="P" format="1">
  <advance width="624"/>
  <unicode hex="0050"/>
  <outline>
    <contour>
      <point x="146" y="0" type="line"/>
      <point x="146" y="312" type="line"/>
      <point x="373" y="312" type="line" smooth="yes"/>
      <point x="476" y="312"/>
      <point x="560" y="396"/>
      <point x="560" y="499" type="curve" smooth="yes"/>
      <point x="560" y="602"/>
      <point x="476" y="686"/>
      <point x="373" y="686" type="curve" smooth="yes"/>
      <point x="92" y="686" type="line"/>
      <point x="92" y="0" type="line"/>
    </contour>
    <contour>
      <point x="146" y="359" type="line"/>
      <point x="146" y="638" type="line"/>
      <point x="366" y="638" type="line" smooth="yes"/>
      <point x="444" y="638"/>
      <point x="508" y="577"/>
      <point x="508" y="499" type="curve" smooth="yes"/>
      <point x="508" y="421"/>
      <point x="444" y="359"/>
      <point x="366" y="359" type="curve" smooth="yes"/>
    </contour>
  </outline>
</glyph>
<glyph name="T" format="1">
  <advance width="578"/>
  <unicode hex="0054"/>
  <outline>
    <contour>
      <point x="541" y="638" type="line"/>
      <point x="541" y="686" type="line"/>
      <point x="25" y="686" type="line"/>
      <point x="25" y="638" type="line"/>
      <point x="257" y="638" type="line"/>
      <point x="257" y="0" type="line"/>
      <point x="309" y="0" type="line"/>
      <point x="309" y="638" type="line"/>
    </contour>
    <contour>
      <point x="289" y="343" type="move" name="center"/>
    </contour>
    <contour>
      <point x="283" y="0" type="move" name="bottom"/>
    </contour>
    <contour>
      <point x="283" y="686" type="move" name="top"/>
    </contour>
  </outline>
</glyph>
<glyph name="V" format="1">
  <advance width="603"/>
  <unicode hex="0056"/>
  <outline>
    <contour>
      <point x="294" y="86" type="line"/>
      <point x="289" y="86" type="line"/>
      <point x="64" y="686" type="line"/>
      <point x="5" y="686" type="line"/>
      <point x="265" y="0" type="line"/>
      <point x="313" y="0" type="line"/>
      <point x="572" y="686" type="line"/>
      <point x="519" y="686" type="line"/>
    </contour>
  </outline>
</glyph>
<glyph name="W" format="1">
  <advance width="916"/>
  <unicode hex="0057"/>
  <outline>
    <contour>
      <point x="631" y="107" type="line"/>
      <point x="627" y="107" type="line"/>
      <point x="460" y="686" type="line"/>
      <point x="410" y="686" type="line"/>
      <point x="243" y="107" type="line"/>
      <point x="239" y="107" type="line"/>
      <point x="72" y="686" type="line"/>
      <point x="14" y="686" type="line"/>
      <point x="214" y="0" type="line"/>
      <point x="260" y="0" type="line"/>
      <point x="429" y="581" type="line"/>
      <point x="433" y="581" type="line"/>
      <point x="602" y="0" type="line"/>
      <point x="648" y="0" type="line"/>
      <point x="848" y="686" type="line"/>
      <point x="798" y="686" type="line"/>
    </contour>
    <contour>
      <point x="435" y="686" type="move" name="top"/>
    </contour>
  </outline>
</glyph>
<glyph name="X" format="1">
  <advance width="631"/>
  <unicode hex="0058"/>
  <outline>
    <contour>
      <point x="559" y="686" type="line"/>
      <point x="500" y="686" type="line"/>
      <point x="298" y="402" type="line"/>
      <point x="296" y="402" type="line"/>
      <point x="97" y="686" type="line"/>
      <point x="32" y="686" type="line"/>
      <point x="264" y="359" type="line"/>
      <point x="9" y="0" type="line"/>
      <point x="68" y="0" type="line"/>
      <point x="292" y="315" type="line"/>
      <point x="294" y="315" type="line"/>
      <point x="516" y="0" type="line"/>
      <point x="581" y="0" type="line"/>
      <point x="326" y="359" type="line"/>
    </contour>
  </outline>
</glyph>
<glyph name="Y" format="1">
  <advance width="572"/>
  <unicode hex="0059"/>
  <outline>
    <contour>
      <point x="541" y="686" type="line"/>
      <point x="486" y="686" type="line"/>
      <point x="272" y="321" type="line"/>
      <point x="269" y="321" type="line"/>
      <point x="58" y="686" type="line"/>
      <point x="-5" y="686" type="line"/>
      <point x="241" y="266" type="line"/>
      <point x="241" y="0" type="line"/>
      <point x="295" y="0" type="line"/>
      <point x="295" y="266" type="line"/>
    </contour>
    <contour>
      <point x="272" y="686" type="move" name="top"/>
    </contour>
  </outline>
</glyph>
<glyph name="bracketleft" format="1">
  <advance width="293"/>
  <unicode hex="005B"/>
  <outline>
    <contour>
      <point x="226" y="-161" type="line"/>
      <point x="226" y="-123" type="line"/>
      <point x="138" y="-123" type="line"/>
      <point x="138" y="648" type="line"/>
      <point x="226" y="648" type="line"/>
      <point x="226" y="686" type="line"/>
      <point x="85" y="686" type="line"/>
      <point x="85" y="-161" type="line"/>
    </contour>
  </outline>
</glyph>
<glyph name="d" format="1">
  <advance width="583"/>
  <unicode hex="0064"/>
  <outline>
    <contour>
      <point x="435" y="0" type="line"/>
      <point x="469" y="0" type="line"/>
      <point x="469" y="720" type="line"/>
      <point x="418" y="720" type="line"/>
      <point x="418" y="440" type="line"/>
      <point x="385" y="490"/>
      <point x="327" y="521"/>
      <point x="255" y="521" type="curve" smooth="yes"/>
      <point x="143" y="521"/>
      <point x="52" y="433"/>
      <point x="52" y="271" type="curve" smooth="yes"/>
      <point x="52" y="260" type="line" smooth="yes"/>
      <point x="52" y="70"/>
      <point x="143" y="-10"/>
      <point x="255" y="-10" type="curve" smooth="yes"/>
      <point x="330" y="-10"/>
      <point x="386" y="18"/>
      <point x="424" y="77" type="curve"/>
    </contour>
    <contour>
      <point x="419" y="257" type="line" smooth="yes"/>
      <point x="419" y="88"/>
      <point x="346" y="36"/>
      <point x="260" y="36" type="curve" smooth="yes"/>
      <point x="173" y="36"/>
      <point x="103" y="92"/>
      <point x="103" y="258" type="curve" smooth="yes"/>
      <point x="103" y="269" type="line" smooth="yes"/>
      <point x="103" y="412"/>
      <point x="173" y="475"/>
      <point x="260" y="475" type="curve" smooth="yes"/>
      <point x="347" y="475"/>
      <point x="419" y="413"/>
      <point x="419" y="269" type="curve" smooth="yes"/>
    </contour>
    <contour>
      <point x="292" y="256" type="move" name="center"/>
    </contour>
    <contour>
      <point x="563" y="686" type="move" name="topright"/>
    </contour>
  </outline>
</glyph>
<glyph name="j" format="1">
  <advance width="260"/>
  <unicode hex="006A"/>
  <outline>
    <contour>
      <point x="81" y="666" type="line"/>
      <point x="140" y="666" type="line"/>
      <point x="140" y="720" type="line"/>
      <point x="81" y="720" type="line"/>
    </contour>
    <contour>
      <point x="85" y="-73" type="line" smooth="yes"/>
      <point x="85" y="-132"/>
      <point x="56" y="-140"/>
      <point x="28" y="-140" type="curve" smooth="yes"/>
      <point x="13" y="-140"/>
      <point x="-18" y="-131"/>
      <point x="-34" y="-124" type="curve"/>
      <point x="-34" y="-169" type="line"/>
      <point x="-17" y="-179"/>
      <point x="9" y="-186"/>
      <point x="34" y="-186" type="curve" smooth="yes"/>
      <point x="93" y="-186"/>
      <point x="136" y="-152"/>
      <point x="136" y="-75" type="curve" smooth="yes"/>
      <point x="136" y="511" type="line"/>
      <point x="85" y="511" type="line"/>
    </contour>
  </outline>
</glyph>
<glyph name="k" format="1">
  <advance width="535"/>
  <unicode hex="006B"/>
  <outline>
    <contour>
      <point x="438" y="0" type="line"/>
      <point x="504" y="0" type="line"/>
      <point x="272" y="270" type="line"/>
      <point x="487" y="511" type="line"/>
      <point x="424" y="511" type="line"/>
      <point x="134" y="186" type="line"/>
      <point x="134" y="720" type="line"/>
      <point x="83" y="720" type="line"/>
      <point x="83" y="0" type="line"/>
      <point x="134" y="0" type="line"/>
      <point x="134" y="127" type="line"/>
      <point x="238" y="232" type="line"/>
    </contour>
    <contour>
      <point x="268" y="0" type="move" name="bottom"/>
    </contour>
  </outline>
</glyph>
<glyph name="l" format="1">
  <advance width="268"/>
  <unicode hex="006C"/>
  <outline>
    <contour>
      <point x="138" y="0" type="line"/>
      <point x="138" y="720" type="line"/>
      <point x="87" y="720" type="line"/>
      <point x="87" y="0" type="line"/>
    </contour>
    <contour>
      <point x="113" y="686" type="move" name="top"/>
    </contour>
    <contour>
      <point x="113" y="0" type="move" name="bottom"/>
    </contour>
    <contour>
      <point x="248" y="686" type="move" name="topright"/>
    </contour>
  </outline>
</glyph>
<glyph name="s" format="1">
  <advance width="534"/>
  <unicode hex="0073"/>
  <outline>
    <contour>
      <point x="46" y="157" type="line" smooth="yes"/>
      <point x="46" y="157"/>
      <point x="45" y="151"/>
      <point x="45" y="132" type="curve" smooth="yes"/>
      <point x="45" y="80"/>
      <point x="90" y="-10"/>
      <point x="248" y="-10" type="curve" smooth="yes"/>
      <point x="367" y="-10"/>
      <point x="457" y="30"/>
      <point x="457" y="146" type="curve" smooth="yes"/>
      <point x="457" y="334"/>
      <point x="111" y="246"/>
      <point x="111" y="383" type="curve" smooth="yes"/>
      <point x="111" y="408"/>
      <point x="117" y="475"/>
      <point x="249" y="475" type="curve" smooth="yes"/>
      <point x="385" y="475"/>
      <point x="394" y="405"/>
      <point x="394" y="382" type="curve" smooth="yes"/>
      <point x="394" y="376"/>
      <point x="394" y="369"/>
      <point x="394" y="369" type="curve"/>
      <point x="444" y="369" type="line"/>
      <point x="444" y="369"/>
      <point x="445" y="377"/>
      <point x="445" y="383" type="curve" smooth="yes"/>
      <point x="445" y="443"/>
      <point x="394" y="521"/>
      <point x="258" y="521" type="curve" smooth="yes"/>
      <point x="121" y="521"/>
      <point x="60" y="458"/>
      <point x="60" y="381" type="curve" smooth="yes"/>
      <point x="60" y="187"/>
      <point x="406" y="293"/>
      <point x="406" y="136" type="curve" smooth="yes"/>
      <point x="406" y="78"/>
      <point x="355" y="36"/>
      <point x="261" y="36" type="curve" smooth="yes"/>
      <point x="159" y="36"/>
      <point x="95" y="74"/>
      <point x="95" y="143" type="curve" smooth="yes"/>
      <point x="95" y="148"/>
      <point x="95" y="152"/>
      <point x="96" y="157" type="curve"/>
    </contour>
    <contour>
      <point x="247" y="511" type="move" name="top"/>
    </contour>
    <contour>
      <point x="267" y="0" type="move" name="bottom"/>
    </contour>
  </outline>
</glyph>
<glyph name="x" format="1">
  <advance width="519"/>
  <unicode hex="0078"/>
  <outline>
    <contour>
      <point x="456" y="0" type="line"/>
      <point x="266" y="262" type="line"/>
      <point x="447" y="511" type="line"/>
      <point x="389" y="511" type="line"/>
      <point x="239" y="303" type="line"/>
      <point x="238" y="303" type="line"/>
      <point x="90" y="511" type="line"/>
      <point x="26" y="511" type="line"/>
      <point x="208" y="262" type="line"/>
      <point x="18" y="0" type="line"/>
      <point x="76" y="0" type="line"/>
      <point x="235" y="221" type="line"/>
      <point x="236" y="221" type="line"/>
      <point x="393" y="0" type="line"/>
    </contour>
  </outline>
</glyph>
<glyph name="braceleft" format="1">
  <advance width="315"/>
  <unicode hex="007B"/>
  <outline>
    <contour>
      <point x="80" y="268" type="line"/>
      <point x="147" y="268"/>
      <point x="161" y="306"/>
      <point x="163" y="371" type="curve" smooth="yes"/>
      <point x="170" y="589" type="line" smooth="yes"/>
      <point x="171" y="635"/>
      <point x="221" y="648"/>
      <point x="249" y="648" type="curve"/>
      <point x="249" y="686" type="line"/>
      <point x="191" y="686"/>
      <point x="117" y="659"/>
      <point x="117" y="574" type="curve" smooth="yes"/>
      <point x="117" y="360" type="line" smooth="yes"/>
      <point x="117" y="319"/>
      <point x="76" y="302"/>
      <point x="40" y="303" type="curve"/>
      <point x="40" y="224" type="line"/>
      <point x="76" y="225"/>
      <point x="117" y="208"/>
      <point x="117" y="167" type="curve" smooth="yes"/>
      <point x="117" y="-47" type="line" smooth="yes"/>
      <point x="117" y="-132"/>
      <point x="191" y="-159"/>
      <point x="249" y="-159" type="curve"/>
      <point x="249" y="-121" type="line"/>
      <point x="221" y="-121"/>
      <point x="171" y="-108"/>
      <point x="170" y="-62" type="curve" smooth="yes"/>
      <point x="163" y="156" type="line" smooth="yes"/>
      <point x="161" y="221"/>
      <point x="147" y="259"/>
      <point x="80" y="259" type="curve"/>
    </contour>
  </outline>
</glyph>
<glyph name="cent" format="1">
  <advance width="527"/>
  <unicode hex="00A2"/>
  <outline>
    <contour>
      <point x="238" y="693" type="line"/>
      <point x="247" y="609" type="line"/>
      <point x="128" y="602"/>
      <point x="48" y="510"/>
      <point x="48" y="351" type="curve" smooth="yes"/>
      <point x="48" y="336" type="line" smooth="yes"/>
      <point x="48" y="177"/>
      <point x="129" y="86"/>
      <point x="247" y="79" type="curve"/>
      <point x="238" y="-6" type="line"/>
      <point x="288" y="-6" type="line"/>
      <point x="278" y="79" type="line"/>
      <point x="382" y="85"/>
      <point x="461" y="158"/>
      <point x="461" y="285" type="curve"/>
      <point x="411" y="285" type="line"/>
      <point x="411" y="174"/>
      <point x="343" y="124"/>
      <point x="262" y="124" type="curve" smooth="yes"/>
      <point x="170" y="124"/>
      <point x="99" y="191"/>
      <point x="99" y="330" type="curve" smooth="yes"/>
      <point x="99" y="357" type="line" smooth="yes"/>
      <point x="99" y="496"/>
      <point x="169" y="563"/>
      <point x="261" y="563" type="curve" smooth="yes"/>
      <point x="343" y="563"/>
      <point x="411" y="511"/>
      <point x="411" y="402" type="curve"/>
      <point x="461" y="402" type="line"/>
      <point x="461" y="528"/>
      <point x="382" y="601"/>
      <point x="278" y="608" type="curve"/>
      <point x="288" y="693" type="line"/>
    </contour>
  </outline>
</glyph>
<glyph name="brokenbar" format="1">
  <advance width="269"/>
  <unicode hex="00A6"/>
  <outline>
    <contour>
      <point x="90" y="0" type="line"/>
      <point x="155" y="0" type="line"/>
      <point x="155" y="262" type="line"/>
      <point x="90" y="262" type="line"/>
    </contour>
    <contour>
      <point x="90" y="424" type="line"/>
      <point x="155" y="424" type="line"/>
      <point x="155" y="686" type="line"/>
      <point x="90" y="686" type="line"/>
    </contour>
  </outline>
</glyph>
<glyph name="guillemotleft" format="1">
  <advance width="460"/>
  <unicode hex="00AB"/>
  <outline>
    <contour>
      <point x="396" y="163" type="line"/>
      <point x="299" y="337" type="line"/>
      <point x="396" y="511" type="line"/>
      <point x="355" y="511" type="line"/>
      <point x="231" y="337" type="line"/>
      <point x="355" y="163" type="line"/>
    </contour>
    <contour>
      <point x="213" y="163" type="line"/>
      <point x="116" y="337" type="line"/>
      <point x="213" y="511" type="line"/>
      <point x="172" y="511" type="line"/>
      <point x="49" y="337" type="line"/>
      <point x="172" y="163" type="line"/>
    </contour>
  </outline>
</glyph>
<glyph name="twosuperior" format="1">
  <advance width="384"/>
  <unicode hex="00B2"/>
  <outline>
    <contour>
      <point x="61" y="422" type="line"/>
      <point x="315" y="422" type="line"/>
      <point x="315" y="460" type="line"/>
      <point x="107" y="460" type="line"/>
      <point x="107" y="470"/>
      <point x="113" y="484"/>
      <point x="134" y="498" type="curve" smooth="yes"/>
      <point x="246" y="573" type="line" smooth="yes"/>
      <point x="279" y="595"/>
      <point x="313" y="628"/>
      <point x="313" y="687" type="curve" smooth="yes"/>
      <point x="313" y="753"/>
      <point x="267" y="805"/>
      <point x="191" y="805" type="curve" smooth="yes"/>
      <point x="121" y="805"/>
      <point x="65" y="755"/>
      <point x="65" y="679" type="curve" smooth="yes"/>
      <point x="65" y="677"/>
      <point x="65" y="669"/>
      <point x="66" y="664" type="curve"/>
      <point x="107" y="664" type="line"/>
      <point x="106" y="671"/>
      <point x="106" y="678"/>
      <point x="106" y="683" type="curve" smooth="yes"/>
      <point x="106" y="731"/>
      <point x="142" y="767"/>
      <point x="191" y="767" type="curve" smooth="yes"/>
      <point x="243" y="767"/>
      <point x="272" y="733"/>
      <point x="272" y="685" type="curve" smooth="yes"/>
      <point x="272" y="647"/>
      <point x="249" y="623"/>
      <point x="227" y="608" type="curve" smooth="yes"/>
      <point x="120" y="537" type="line" smooth="yes"/>
      <point x="84" y="513"/>
      <point x="61" y="486"/>
      <point x="61" y="441" type="curve" smooth="yes"/>
    </contour>
  </outline>
</glyph>
<glyph name="paragraph" format="1">
  <advance width="524"/>
  <unicode hex="00B6"/>
  <outline>
    <contour>
      <point x="264" y="-174" type="line"/>
      <point x="264" y="637" type="line"/>
      <point x="336" y="637" type="line"/>
      <point x="336" y="-174" type="line"/>
      <point x="388" y="-174" type="line"/>
      <point x="388" y="637" type="line"/>
      <point x="454" y="637" type="line"/>
      <point x="454" y="686" type="line"/>
      <point x="244" y="686" type="line" smooth="yes"/>
      <point x="123" y="686"/>
      <point x="25" y="601"/>
      <point x="25" y="466" type="curve" smooth="yes"/>
      <point x="25" y="356"/>
      <point x="106" y="265"/>
      <point x="212" y="249" type="curve"/>
      <point x="212" y="-174" type="line"/>
    </contour>
  </outline>
</glyph>
<glyph name="onesuperior" format="1">
  <advance width="334"/>
  <unicode hex="00B9"/>
  <outline>
    <contour>
      <point x="271" y="422" type="line"/>
      <point x="271" y="460" type="line"/>
      <point x="194" y="460" type="line"/>
      <point x="194" y="797" type="line"/>
      <point x="172" y="797" type="line"/>
      <point x="119" y="780"/>
      <point x="92" y="776"/>
      <point x="50" y="774" type="curve"/>
      <point x="50" y="745" type="line"/>
      <point x="152" y="745" type="line"/>
      <point x="152" y="460" type="line"/>
      <point x="50" y="460" type="line"/>
      <point x="50" y="422" type="line"/>
    </contour>
  </outline>
</glyph>
<glyph name="onehalf" format="1">
  <advance width="726"/>
  <unicode hex="00BD"/>
  <outline>
    <contour>
      <point x="254" y="311" type="line"/>
      <point x="254" y="349" type="line"/>
      <point x="177" y="349" type="line"/>
      <point x="177" y="686" type="line"/>
      <point x="155" y="686" type="line"/>
      <point x="102" y="669"/>
      <point x="75" y="665"/>
      <point x="33" y="663" type="curve"/>
      <point x="33" y="634" type="line"/>
      <point x="135" y="634" type="line"/>
      <point x="135" y="349" type="line"/>
      <point x="33" y="349" type="line"/>
      <point x="33" y="311" type="line"/>
    </contour>
    <contour>
      <point x="588" y="686" type="line"/>
      <point x="544" y="686" type="line"/>
      <point x="124" y="0" type="line"/>
      <point x="171" y="0" type="line"/>
    </contour>
    <contour>
      <point x="439" y="0" type="line"/>
      <point x="693" y="0" type="line"/>
      <point x="693" y="38" type="line"/>
      <point x="485" y="38" type="line"/>
      <point x="485" y="48"/>
      <point x="491" y="62"/>
      <point x="512" y="76" type="curve" smooth="yes"/>
      <point x="624" y="151" type="line" smooth="yes"/>
      <point x="657" y="173"/>
      <point x="691" y="206"/>
      <point x="691" y="265" type="curve" smooth="yes"/>
      <point x="691" y="331"/>
      <point x="645" y="383"/>
      <point x="569" y="383" type="curve" smooth="yes"/>
      <point x="499" y="383"/>
      <point x="443" y="333"/>
      <point x="443" y="257" type="curve" smooth="yes"/>
      <point x="443" y="255"/>
      <point x="443" y="247"/>
      <point x="444" y="242" type="curve"/>
      <point x="485" y="242" type="line"/>
      <point x="484" y="249"/>
      <point x="484" y="256"/>
      <point x="484" y="261" type="curve" smooth="yes"/>
      <point x="484" y="309"/>
      <point x="520" y="345"/>
      <point x="569" y="345" type="curve" smooth="yes"/>
      <point x="621" y="345"/>
      <point x="650" y="311"/>
      <point x="650" y="263" type="curve" smooth="yes"/>
      <point x="650" y="225"/>
      <point x="627" y="201"/>
      <point x="605" y="186" type="curve" smooth="yes"/>
      <point x="498" y="115" type="line" smooth="yes"/>
      <point x="462" y="91"/>
      <point x="439" y="64"/>
      <point x="439" y="19" type="curve" smooth="yes"/>
    </contour>
  </outline>
</glyph>
<glyph name="Agrave" format="1">
  <advance width="652"/>
  <unicode hex="00C0"/>
  <outline>
    <contour>
      <point x="563" y="0" type="line"/>
      <point x="622" y="0" type="line"/>
      <point x="338" y="686" type="line"/>
      <point x="288" y="686" type="line"/>
      <point x="4" y="0" type="line"/>
      <point x="60" y="0" type="line"/>
      <point x="130" y="170" type="line"/>
      <point x="492" y="170" type="line"/>
    </contour>
    <contour>
      <point x="309" y="612" type="line"/>
      <point x="313" y="612" type="line"/>
      <point x="472" y="219" type="line"/>
      <point x="150" y="219" type="line"/>
    </contour>
    <contour>
      <point x="350" y="750" type="line"/>
      <point x="254" y="895" type="line"/>
      <point x="189" y="895" type="line"/>
      <point x="189" y="892" type="line"/>
      <point x="300" y="750" type="line"/>
    </contour>
  </outline>
</glyph>
<glyph name="Atilde" format="1">
  <advance width="652"/>
  <unicode hex="00C3"/>
  <outline>
    <contour>
      <point x="563" y="0" type="line"/>
      <point x="622" y="0" type="line"/>
      <point x="338" y="686" type="line"/>
      <point x="288" y="686" type="line"/>
      <point x="4" y="0" type="line"/>
      <point x="60" y="0" type="line"/>
      <point x="130" y="170" type="line"/>
      <point x="492" y="170" type="line"/>
    </contour>
    <contour>
      <point x="309" y="612" type="line"/>
      <point x="313" y="612" type="line"/>
      <point x="472" y="219" type="line"/>
      <point x="150" y="219" type="line"/>
    </contour>
    <contour>
      <point x="457" y="832" type="line"/>
      <point x="450" y="809"/>
      <point x="433" y="800"/>
      <point x="400" y="800" type="curve" smooth="yes"/>
      <point x="346" y="800"/>
      <point x="297" y="832"/>
      <point x="233" y="832" type="curve" smooth="yes"/>
      <point x="155" y="832"/>
      <point x="132" y="782"/>
      <point x="132" y="750" type="curve"/>
      <point x="169" y="750" type="line"/>
      <point x="176" y="773"/>
      <point x="193" y="782"/>
      <point x="226" y="782" type="curve" smooth="yes"/>
      <point x="280" y="782"/>
      <point x="329" y="750"/>
      <point x="393" y="750" type="curve" smooth="yes"/>
      <point x="472" y="750"/>
      <point x="494" y="800"/>
      <point x="494" y="832" type="curve"/>
    </contour>
  </outline>
</glyph>
<glyph name="Adieresis" format="1">
  <advance width="652"/>
  <unicode hex="00C4"/>
  <outline>
    <contour>
      <point x="563" y="0" type="line"/>
      <point x="622" y="0" type="line"/>
      <point x="338" y="686" type="line"/>
      <point x="288" y="686" type="line"/>
      <point x="4" y="0" type="line"/>
      <point x="60" y="0" type="line"/>
      <point x="130" y="170" type="line"/>
      <point x="492" y="170" type="line"/>
    </contour>
    <contour>
      <point x="309" y="612" type="line"/>
      <point x="313" y="612" type="line"/>
      <point x="472" y="219" type="line"/>
      <point x="150" y="219" type="line"/>
    </contour>
    <contour>
      <point x="194" y="750" type="line"/>
      <point x="259" y="750" type="line"/>
      <point x="259" y="819" type="line"/>
      <point x="194" y="819" type="line"/>
    </contour>
    <contour>
      <point x="370" y="750" type="line"/>
      <point x="435" y="750" type="line"/>
      <point x="435" y="819" type="line"/>
      <point x="370" y="819" type="line"/>
    </contour>
  </outline>
</glyph>
<glyph name="Eacute" format="1">
  <advance width="593"/>
  <unicode hex="00C9"/>
  <outline>
    <contour>
      <point x="526" y="0" type="line"/>
      <point x="515" y="48" type="line"/>
      <point x="146" y="48" type="line"/>
      <point x="146" y="326" type="line"/>
      <point x="465" y="326" type="line"/>
      <point x="465" y="374" type="line"/>
      <point x="146" y="374" type="line"/>
      <point x="146" y="638" type="line"/>
      <point x="506" y="638" type="line"/>
      <point x="516" y="686" type="line"/>
      <point x="92" y="686" type="line"/>
      <point x="92" y="0" type="line"/>
    </contour>
    <contour>
      <point x="333" y="750" type="line"/>
      <point x="444" y="892" type="line"/>
      <point x="444" y="895" type="line"/>
      <point x="379" y="895" type="line"/>
      <point x="283" y="750" type="line"/>
    </contour>
  </outline>
</glyph>
<glyph name="Igrave" format="1">
  <advance width="364"/>
  <unicode hex="00CC"/>
  <outline>
    <contour>
      <point x="32" y="637" type="line"/>
      <point x="111" y="637" type="line"/>
      <point x="111" y="49" type="line"/>
      <point x="32" y="49" type="line"/>
      <point x="32" y="0" type="line"/>
      <point x="244" y="0" type="line"/>
      <point x="244" y="49" type="line"/>
      <point x="165" y="49" type="line"/>
      <point x="165" y="637" type="line"/>
      <point x="244" y="637" type="line"/>
      <point x="244" y="686" type="line"/>
      <point x="32" y="686" type="line"/>
    </contour>
    <contour>
      <point x="171" y="750" type="line"/>
      <point x="75" y="895" type="line"/>
      <point x="10" y="895" type="line"/>
      <point x="10" y="892" type="line"/>
      <point x="121" y="750" type="line"/>
    </contour>
  </outline>
</glyph>
<glyph name="Iacute" format="1">
  <advance width="364"/>
  <unicode hex="00CD"/>
  <outline>
    <contour>
      <point x="53" y="637" type="line"/>
      <point x="132" y="637" type="line"/>
      <point x="132" y="49" type="line"/>
      <point x="53" y="49" type="line"/>
      <point x="53" y="0" type="line"/>
      <point x="265" y="0" type="line"/>
      <point x="265" y="49" type="line"/>
      <point x="186" y="49" type="line"/>
      <point x="186" y="637" type="line"/>
      <point x="265" y="637" type="line"/>
      <point x="265" y="686" type="line"/>
      <point x="53" y="686" type="line"/>
    </contour>
    <contour>
      <point x="185" y="750" type="line"/>
      <point x="296" y="892" type="line"/>
      <point x="296" y="895" type="line"/>
      <point x="231" y="895" type="line"/>
      <point x="135" y="750" type="line"/>
    </contour>
  </outline>
</glyph>
<glyph name="Ograve" format="1">
  <advance width="690"/>
  <unicode hex="00D2"/>
  <outline>
    <contour>
      <point x="474" y="-10"/>
      <point x="593" y="55"/>
      <point x="593" y="330" type="curve" smooth="yes"/>
      <point x="593" y="356" type="line" smooth="yes"/>
      <point x="593" y="631"/>
      <point x="474" y="696"/>
      <point x="327" y="696" type="curve" smooth="yes"/>
      <point x="180" y="696"/>
      <point x="61" y="631"/>
      <point x="61" y="356" type="curve" smooth="yes"/>
      <point x="61" y="330" type="line" smooth="yes"/>
      <point x="61" y="55"/>
      <point x="180" y="-10"/>
      <point x="327" y="-10" type="curve" smooth="yes"/>
    </contour>
    <contour>
      <point x="210" y="38"/>
      <point x="115" y="91"/>
      <point x="115" y="318" type="curve" smooth="yes"/>
      <point x="115" y="368" type="line" smooth="yes"/>
      <point x="115" y="595"/>
      <point x="210" y="648"/>
      <point x="327" y="648" type="curve" smooth="yes"/>
      <point x="444" y="648"/>
      <point x="539" y="595"/>
      <point x="539" y="368" type="curve" smooth="yes"/>
      <point x="539" y="318" type="line" smooth="yes"/>
      <point x="539" y="91"/>
      <point x="444" y="38"/>
      <point x="327" y="38" type="curve" smooth="yes"/>
    </contour>
    <contour>
      <point x="359" y="750" type="line"/>
      <point x="263" y="895" type="line"/>
      <point x="198" y="895" type="line"/>
      <point x="198" y="892" type="line"/>
      <point x="309" y="750" type="line"/>
    </contour>
  </outline>
</glyph>
<glyph name="multiply" format="1">
  <advance width="615"/>
  <unicode hex="00D7"/>
  <outline>
    <contour>
      <point x="140" y="457" type="line"/>
      <point x="99" y="416" type="line"/>
      <point x="259" y="255" type="line"/>
      <point x="99" y="95" type="line"/>
      <point x="140" y="54" type="line"/>
      <point x="300" y="214" type="line"/>
      <point x="460" y="54" type="line"/>
      <point x="501" y="95" type="line"/>
      <point x="341" y="255" type="line"/>
      <point x="502" y="416" type="line"/>
      <point x="461" y="457" type="line"/>
      <point x="300" y="296" type="line"/>
    </contour>
  </outline>
</glyph>
<glyph name="Oslash" format="1">
  <advance width="690"/>
  <unicode hex="00D8"/>
  <outline>
    <contour>
      <point x="594" y="754" type="line"/>
      <point x="550" y="754" type="line"/>
      <point x="489" y="652" type="line"/>
      <point x="444" y="684"/>
      <point x="388" y="696"/>
      <point x="327" y="696" type="curve" smooth="yes"/>
      <point x="180" y="696"/>
      <point x="61" y="631"/>
      <point x="61" y="356" type="curve" smooth="yes"/>
      <point x="61" y="330" type="line" smooth="yes"/>
      <point x="61" y="195"/>
      <point x="90" y="111"/>
      <point x="136" y="60" type="curve"/>
      <point x="61" y="-65" type="line"/>
      <point x="106" y="-65" type="line"/>
      <point x="165" y="34" type="line"/>
      <point x="210" y="1"/>
      <point x="266" y="-10"/>
      <point x="327" y="-10" type="curve" smooth="yes"/>
      <point x="474" y="-10"/>
      <point x="593" y="55"/>
      <point x="593" y="330" type="curve" smooth="yes"/>
      <point x="593" y="356" type="line" smooth="yes"/>
      <point x="593" y="491"/>
      <point x="564" y="575"/>
      <point x="517" y="626" type="curve"/>
    </contour>
    <contour>
      <point x="275" y="38"/>
      <point x="228" y="48"/>
      <point x="191" y="79" type="curve"/>
      <point x="489" y="578" type="line"/>
      <point x="520" y="535"/>
      <point x="539" y="469"/>
      <point x="539" y="368" type="curve" smooth="yes"/>
      <point x="539" y="318" type="line" smooth="yes"/>
      <point x="539" y="91"/>
      <point x="444" y="38"/>
      <point x="327" y="38" type="curve" smooth="yes"/>
    </contour>
    <contour>
      <point x="115" y="368" type="line" smooth="yes"/>
      <point x="115" y="595"/>
      <point x="210" y="648"/>
      <point x="327" y="648" type="curve" smooth="yes"/>
      <point x="378" y="648"/>
      <point x="425" y="638"/>
      <point x="462" y="607" type="curve"/>
      <point x="164" y="108" type="line"/>
      <point x="133" y="151"/>
      <point x="115" y="217"/>
      <point x="115" y="318" type="curve" smooth="yes"/>
    </contour>
    <contour>
      <point x="345" y="686" type="move" name="top"/>
    </contour>
  </outline>
</glyph>
<glyph name="Ucircumflex" format="1">
  <advance width="680"/>
  <unicode hex="00DB"/>
  <outline>
    <contour>
      <point x="509" y="686" type="line"/>
      <point x="509" y="222" type="line" smooth="yes"/>
      <point x="509" y="114"/>
      <point x="443" y="38"/>
      <point x="324" y="38" type="curve" smooth="yes"/>
      <point x="206" y="38"/>
      <point x="140" y="111"/>
      <point x="140" y="222" type="curve" smooth="yes"/>
      <point x="140" y="686" type="line"/>
      <point x="86" y="686" type="line" smooth="yes"/>
      <point x="86" y="686"/>
      <point x="86" y="221"/>
      <point x="86" y="220" type="curve" smooth="yes"/>
      <point x="86" y="81"/>
      <point x="180" y="-10"/>
      <point x="324" y="-10" type="curve" smooth="yes"/>
      <point x="468" y="-10"/>
      <point x="563" y="81"/>
      <point x="563" y="220" type="curve" smooth="yes"/>
      <point x="563" y="221"/>
      <point x="563" y="686"/>
      <point x="563" y="686" type="curve" smooth="yes"/>
    </contour>
    <contour>
      <point x="162" y="750" type="line"/>
      <point x="222" y="750" type="line"/>
      <point x="325" y="847" type="line"/>
      <point x="428" y="750" type="line"/>
      <point x="488" y="750" type="line"/>
      <point x="354" y="895" type="line"/>
      <point x="296" y="895" type="line"/>
    </contour>
  </outline>
</glyph>
<glyph name="Udieresis" format="1">
  <advance width="680"/>
  <unicode hex="00DC"/>
  <outline>
    <contour>
      <point x="509" y="686" type="line"/>
      <point x="509" y="222" type="line" smooth="yes"/>
      <point x="509" y="114"/>
      <point x="443" y="38"/>
      <point x="324" y="38" type="curve" smooth="yes"/>
      <point x="206" y="38"/>
      <point x="140" y="111"/>
      <point x="140" y="222" type="curve" smooth="yes"/>
      <point x="140" y="686" type="line"/>
      <point x="86" y="686" type="line" smooth="yes"/>
      <point x="86" y="686"/>
      <point x="86" y="221"/>
      <point x="86" y="220" type="curve" smooth="yes"/>
      <point x="86" y="81"/>
      <point x="180" y="-10"/>
      <point x="324" y="-10" type="curve" smooth="yes"/>
      <point x="468" y="-10"/>
      <point x="563" y="81"/>
      <point x="563" y="220" type="curve" smooth="yes"/>
      <point x="563" y="221"/>
      <point x="563" y="686"/>
      <point x="563" y="686" type="curve" smooth="yes"/>
    </contour>
    <contour>
      <point x="204" y="751" type="line"/>
      <point x="269" y="751" type="line"/>
      <point x="269" y="820" type="line"/>
      <point x="204" y="820" type="line"/>
    </contour>
    <contour>
      <point x="380" y="751" type="line"/>
      <point x="445" y="751" type="line"/>
      <point x="445" y="820" type="line"/>
      <point x="380" y="820" type="line"/>
    </contour>
  </outline>
</glyph>
<glyph name="germandbls" format="1">
  <advance width="614"/>
  <unicode hex="00DF"/>
  <outline>
    <contour>
      <point x="407" y="388" type="line"/>
      <point x="464" y="410"/>
      <point x="509" y="477"/>
      <point x="509" y="544" type="curve" smooth="yes"/>
      <point x="509" y="646"/>
      <point x="429" y="728"/>
      <point x="315" y="728" type="curve" smooth="yes"/>
      <point x="189" y="728"/>
      <point x="102" y="643"/>
      <point x="102" y="511" type="curve"/>
      <point x="46" y="511" type="line"/>
      <point x="46" y="465" type="line"/>
      <point x="102" y="465" type="line"/>
      <point x="102" y="-66" type="line"/>
      <point x="153" y="-66" type="line"/>
      <point x="153" y="514" type="line" smooth="yes"/>
      <point x="153" y="614"/>
      <point x="215" y="682"/>
      <point x="315" y="682" type="curve" smooth="yes"/>
      <point x="401" y="682"/>
      <point x="458" y="620"/>
      <point x="458" y="544" type="curve" smooth="yes"/>
      <point x="458" y="468"/>
      <point x="389" y="407"/>
      <point x="305" y="407" type="curve" smooth="yes"/>
      <point x="224" y="407" type="line"/>
      <point x="224" y="361" type="line"/>
      <point x="316" y="361" type="line" smooth="yes"/>
      <point x="407" y="361"/>
      <point x="480" y="290"/>
      <point x="480" y="203" type="curve" smooth="yes"/>
      <point x="480" y="116"/>
      <point x="407" y="46"/>
      <point x="316" y="46" type="curve" smooth="yes"/>
      <point x="224" y="46" type="line"/>
      <point x="224" y="0" type="line"/>
      <point x="316" y="0" type="line" smooth="yes"/>
      <point x="435" y="0"/>
      <point x="531" y="90"/>
      <point x="531" y="203" type="curve" smooth="yes"/>
      <point x="531" y="283"/>
      <point x="480" y="358"/>
      <point x="409" y="385" type="curve"/>
    </contour>
  </outline>
</glyph>
<glyph name="ae" format="1">
  <advance width="895"/>
  <unicode hex="00E6"/>
  <outline>
    <contour>
      <point x="759" y="189" type="line"/>
      <point x="759" y="84"/>
      <point x="689" y="36"/>
      <point x="610" y="36" type="curve" smooth="yes"/>
      <point x="518" y="36"/>
      <point x="447" y="103"/>
      <point x="447" y="242" type="curve" smooth="yes"/>
      <point x="447" y="250" type="line"/>
      <point x="809" y="250" type="line"/>
      <point x="809" y="314" type="line" smooth="yes"/>
      <point x="809" y="447"/>
      <point x="721" y="521"/>
      <point x="609" y="521" type="curve" smooth="yes"/>
      <point x="536" y="521"/>
      <point x="476" y="489"/>
      <point x="438" y="430" type="curve"/>
      <point x="417" y="492"/>
      <point x="359" y="521"/>
      <point x="263" y="521" type="curve" smooth="yes"/>
      <point x="153" y="521"/>
      <point x="66" y="471"/>
      <point x="66" y="381" type="curve" smooth="yes"/>
      <point x="66" y="372"/>
      <point x="67" y="363"/>
      <point x="68" y="355" type="curve"/>
      <point x="117" y="355" type="line"/>
      <point x="117" y="371" type="line" smooth="yes"/>
      <point x="117" y="446"/>
      <point x="181" y="475"/>
      <point x="263" y="475" type="curve" smooth="yes"/>
      <point x="358" y="475"/>
      <point x="396" y="447"/>
      <point x="396" y="360" type="curve" smooth="yes"/>
      <point x="396" y="296" type="line"/>
      <point x="194" y="296"/>
      <point x="48" y="282"/>
      <point x="48" y="133" type="curve" smooth="yes"/>
      <point x="48" y="20"/>
      <point x="119" y="-10"/>
      <point x="209" y="-10" type="curve" smooth="yes"/>
      <point x="286" y="-10"/>
      <point x="377" y="22"/>
      <point x="420" y="115" type="curve"/>
      <point x="455" y="34"/>
      <point x="523" y="-10"/>
      <point x="610" y="-10" type="curve" smooth="yes"/>
      <point x="720" y="-10"/>
      <point x="809" y="61"/>
      <point x="809" y="189" type="curve"/>
    </contour>
    <contour>
      <point x="396" y="216" type="line" smooth="yes"/>
      <point x="396" y="92"/>
      <point x="305" y="36"/>
      <point x="219" y="36" type="curve" smooth="yes"/>
      <point x="128" y="36"/>
      <point x="99" y="66"/>
      <point x="99" y="132" type="curve" smooth="yes"/>
      <point x="99" y="243"/>
      <point x="216" y="250"/>
      <point x="396" y="250" type="curve"/>
    </contour>
    <contour>
      <point x="691" y="475"/>
      <point x="759" y="423"/>
      <point x="759" y="314" type="curve" smooth="yes"/>
      <point x="759" y="296" type="line"/>
      <point x="448" y="296" type="line"/>
      <point x="456" y="416"/>
      <point x="523" y="475"/>
      <point x="609" y="475" type="curve" smooth="yes"/>
    </contour>
    <contour>
      <point x="448" y="511" type="move" name="top"/>
    </contour>
  </outline>
</glyph>
<glyph name="iacute" format="1">
  <advance width="260"/>
  <unicode hex="00ED"/>
  <outline>
    <contour>
      <point x="146" y="0" type="line"/>
      <point x="146" y="511" type="line"/>
      <point x="95" y="511" type="line"/>
      <point x="95" y="0" type="line"/>
    </contour>
    <contour>
      <point x="143" y="575" type="line"/>
      <point x="254" y="717" type="line"/>
      <point x="254" y="720" type="line"/>
      <point x="189" y="720" type="line"/>
      <point x="93" y="575" type="line"/>
    </contour>
  </outline>
</glyph>
<glyph name="icircumflex" format="1">
  <advance width="260"/>
  <unicode hex="00EE"/>
  <outline>
    <contour>
      <point x="159" y="0" type="line"/>
      <point x="159" y="511" type="line"/>
      <point x="108" y="511" type="line"/>
      <point x="108" y="0" type="line"/>
    </contour>
    <contour>
      <point x="-31" y="575" type="line"/>
      <point x="29" y="575" type="line"/>
      <point x="132" y="672" type="line"/>
      <point x="235" y="575" type="line"/>
      <point x="295" y="575" type="line"/>
      <point x="161" y="720" type="line"/>
      <point x="103" y="720" type="line"/>
    </contour>
  </outline>
</glyph>
<glyph name="eth" format="1">
  <advance width="575"/>
  <unicode hex="00F0"/>
  <outline>
    <contour>
      <point x="111" y="707" type="line"/>
      <point x="135" y="691"/>
      <point x="168" y="669"/>
      <point x="203" y="642" type="curve"/>
      <point x="102" y="593" type="line"/>
      <point x="128" y="570" type="line"/>
      <point x="230" y="620" type="line"/>
      <point x="269" y="587"/>
      <point x="309" y="549"/>
      <point x="343" y="508" type="curve"/>
      <point x="320" y="516"/>
      <point x="295" y="521"/>
      <point x="268" y="521" type="curve" smooth="yes"/>
      <point x="142" y="521"/>
      <point x="52" y="428"/>
      <point x="52" y="263" type="curve" smooth="yes"/>
      <point x="52" y="248" type="line" smooth="yes"/>
      <point x="52" y="83"/>
      <point x="142" y="-10"/>
      <point x="268" y="-10" type="curve" smooth="yes"/>
      <point x="394" y="-10"/>
      <point x="484" y="83"/>
      <point x="484" y="248" type="curve" smooth="yes"/>
      <point x="484" y="263" type="line" smooth="yes"/>
      <point x="484" y="422"/>
      <point x="387" y="550"/>
      <point x="271" y="640" type="curve"/>
      <point x="370" y="688" type="line"/>
      <point x="347" y="711" type="line"/>
      <point x="243" y="661" type="line"/>
      <point x="211" y="684"/>
      <point x="178" y="705"/>
      <point x="148" y="724" type="curve"/>
    </contour>
    <contour>
      <point x="176" y="36"/>
      <point x="103" y="103"/>
      <point x="103" y="242" type="curve" smooth="yes"/>
      <point x="103" y="269" type="line" smooth="yes"/>
      <point x="103" y="408"/>
      <point x="176" y="475"/>
      <point x="268" y="475" type="curve" smooth="yes"/>
      <point x="360" y="475"/>
      <point x="433" y="408"/>
      <point x="433" y="269" type="curve" smooth="yes"/>
      <point x="433" y="242" type="line" smooth="yes"/>
      <point x="433" y="103"/>
      <point x="360" y="36"/>
      <point x="268" y="36" type="curve" smooth="yes"/>
    </contour>
  </outline>
</glyph>
<glyph name="ograve" format="1">
  <advance width="574"/>
  <unicode hex="00F2"/>
  <outline>
    <contour>
      <point x="394" y="-10"/>
      <point x="484" y="83"/>
      <point x="484" y="248" type="curve" smooth="yes"/>
      <point x="484" y="263" type="line" smooth="yes"/>
      <point x="484" y="428"/>
      <point x="394" y="521"/>
      <point x="268" y="521" type="curve" smooth="yes"/>
      <point x="142" y="521"/>
      <point x="52" y="428"/>
      <point x="52" y="263" type="curve" smooth="yes"/>
      <point x="52" y="248" type="line" smooth="yes"/>
      <point x="52" y="83"/>
      <point x="142" y="-10"/>
      <point x="268" y="-10" type="curve" smooth="yes"/>
    </contour>
    <contour>
      <point x="176" y="36"/>
      <point x="103" y="103"/>
      <point x="103" y="242" type="curve" smooth="yes"/>
      <point x="103" y="269" type="line" smooth="yes"/>
      <point x="103" y="408"/>
      <point x="176" y="475"/>
      <point x="268" y="475" type="curve" smooth="yes"/>
      <point x="360" y="475"/>
      <point x="433" y="408"/>
      <point x="433" y="269" type="curve" smooth="yes"/>
      <point x="433" y="242" type="line" smooth="yes"/>
      <point x="433" y="103"/>
      <point x="360" y="36"/>
      <point x="268" y="36" type="curve" smooth="yes"/>
    </contour>
    <contour>
      <point x="302" y="575" type="line"/>
      <point x="206" y="720" type="line"/>
      <point x="141" y="720" type="line"/>
      <point x="141" y="717" type="line"/>
      <point x="252" y="575" type="line"/>
    </contour>
  </outline>
</glyph>
<glyph name="divide" format="1">
  <advance width="615"/>
  <unicode hex="00F7"/>
  <outline>
    <contour>
      <point x="563" y="226" type="line"/>
      <point x="563" y="284" type="line"/>
      <point x="51" y="284" type="line"/>
      <point x="51" y="226" type="line"/>
    </contour>
    <contour>
      <point x="274" y="71" type="line"/>
      <point x="339" y="71" type="line"/>
      <point x="339" y="140" type="line"/>
      <point x="274" y="140" type="line"/>
    </contour>
    <contour>
      <point x="274" y="370" type="line"/>
      <point x="339" y="370" type="line"/>
      <point x="339" y="439" type="line"/>
      <point x="274" y="439" type="line"/>
    </contour>
  </outline>
</glyph>
<glyph name="iogonek" format="1">
  <advance width="260"/>
  <unicode hex="012F"/>
  <outline>
    <contour>
      <point x="81" y="666" type="line"/>
      <point x="140" y="666" type="line"/>
      <point x="140" y="720" type="line"/>
      <point x="81" y="720" type="line"/>
    </contour>
    <component base="dotlessi"/>
    <component base="ogonek" xOffset="-46"/>
  </outline>
</glyph>
<glyph name="lslash" format="1">
  <advance width="298"/>
  <unicode hex="0142"/>
  <outline>
    <contour>
      <point x="165" y="0" type="line"/>
      <point x="165" y="363" type="line"/>
      <point x="259" y="411" type="line"/>
      <point x="259" y="455" type="line"/>
      <point x="165" y="407" type="line"/>
      <point x="165" y="720" type="line"/>
      <point x="114" y="720" type="line"/>
      <point x="114" y="382" type="line"/>
      <point x="20" y="335" type="line"/>
      <point x="20" y="291" type="line"/>
      <point x="114" y="338" type="line"/>
      <point x="114" y="0" type="line"/>
    </contour>
  </outline>
</glyph>
<glyph name="oe" format="1">
  <advance width="933"/>
  <unicode hex="0153"/>
  <outline>
    <contour>
      <point x="796" y="189" type="line"/>
      <point x="796" y="84"/>
      <point x="726" y="36"/>
      <point x="647" y="36" type="curve" smooth="yes"/>
      <point x="556" y="36"/>
      <point x="486" y="101"/>
      <point x="484" y="236" type="curve"/>
      <point x="484" y="250" type="line"/>
      <point x="846" y="250" type="line"/>
      <point x="846" y="314" type="line" smooth="yes"/>
      <point x="846" y="447"/>
      <point x="758" y="521"/>
      <point x="646" y="521" type="curve" smooth="yes"/>
      <point x="560" y="521"/>
      <point x="492" y="478"/>
      <point x="458" y="398" type="curve"/>
      <point x="422" y="478"/>
      <point x="353" y="521"/>
      <point x="268" y="521" type="curve" smooth="yes"/>
      <point x="142" y="521"/>
      <point x="52" y="428"/>
      <point x="52" y="263" type="curve" smooth="yes"/>
      <point x="52" y="248" type="line" smooth="yes"/>
      <point x="52" y="83"/>
      <point x="142" y="-10"/>
      <point x="268" y="-10" type="curve" smooth="yes"/>
      <point x="353" y="-10"/>
      <point x="422" y="33"/>
      <point x="458" y="112" type="curve"/>
      <point x="493" y="33"/>
      <point x="561" y="-10"/>
      <point x="647" y="-10" type="curve" smooth="yes"/>
      <point x="757" y="-10"/>
      <point x="846" y="61"/>
      <point x="846" y="189" type="curve"/>
    </contour>
    <contour>
      <point x="176" y="36"/>
      <point x="103" y="103"/>
      <point x="103" y="242" type="curve" smooth="yes"/>
      <point x="103" y="269" type="line" smooth="yes"/>
      <point x="103" y="408"/>
      <point x="176" y="475"/>
      <point x="268" y="475" type="curve" smooth="yes"/>
      <point x="360" y="475"/>
      <point x="433" y="408"/>
      <point x="433" y="269" type="curve" smooth="yes"/>
      <point x="433" y="242" type="line" smooth="yes"/>
      <point x="433" y="103"/>
      <point x="360" y="36"/>
      <point x="268" y="36" type="curve" smooth="yes"/>
    </contour>
    <contour>
      <point x="728" y="475"/>
      <point x="796" y="423"/>
      <point x="796" y="314" type="curve" smooth="yes"/>
      <point x="796" y="296" type="line"/>
      <point x="485" y="296" type="line"/>
      <point x="493" y="416"/>
      <point x="560" y="475"/>
      <point x="646" y="475" type="curve" smooth="yes"/>
    </contour>
    <contour>
      <point x="467" y="511" type="move" name="top"/>
    </contour>
  </outline>
</glyph>
<glyph name="Zcaron" format="1">
  <advance width="596"/>
  <unicode hex="017D"/>
  <outline>
    <contour>
      <point x="535" y="0" type="line"/>
      <point x="535" y="48" type="line"/>
      <point x="113" y="48" type="line"/>
      <point x="527" y="662" type="line"/>
      <point x="527" y="686" type="line"/>
      <point x="56" y="686" type="line"/>
      <point x="56" y="638" type="line"/>
      <point x="445" y="638" type="line"/>
      <point x="32" y="25" type="line"/>
      <point x="32" y="0" type="line"/>
    </contour>
    <contour>
      <point x="261" y="750" type="line"/>
      <point x="319" y="750" type="line"/>
      <point x="453" y="895" type="line"/>
      <point x="393" y="895" type="line"/>
      <point x="290" y="798" type="line"/>
      <point x="187" y="895" type="line"/>
      <point x="127" y="895" type="line"/>
    </contour>
  </outline>
</glyph>
<glyph name="caron" format="1">
  <advance width="536"/>
  <unicode hex="02C7"/>
  <outline>
    <contour>
      <point x="226" y="575" type="line"/>
      <point x="284" y="575" type="line"/>
      <point x="418" y="720" type="line"/>
      <point x="358" y="720" type="line"/>
      <point x="255" y="623" type="line"/>
      <point x="152" y="720" type="line"/>
      <point x="92" y="720" type="line"/>
    </contour>
    <contour>
      <point x="255" y="511" type="move" name="_top"/>
    </contour>
  </outline>
</glyph>
<glyph name="ring" format="1">
  <advance width="340"/>
  <unicode hex="02DA"/>
  <outline>
    <contour>
      <point x="271" y="702"/>
      <point x="225" y="746"/>
      <point x="170" y="746" type="curve" smooth="yes"/>
      <point x="114" y="746"/>
      <point x="69" y="701"/>
      <point x="69" y="645" type="curve" smooth="yes"/>
      <point x="69" y="589"/>
      <point x="115" y="545"/>
      <point x="170" y="545" type="curve" smooth="yes"/>
      <point x="226" y="545"/>
      <point x="271" y="590"/>
      <point x="271" y="645" type="curve" smooth="yes"/>
    </contour>
    <contour>
      <point x="235" y="610"/>
      <point x="206" y="581"/>
      <point x="170" y="581" type="curve" smooth="yes"/>
      <point x="135" y="581"/>
      <point x="105" y="609"/>
      <point x="105" y="645" type="curve" smooth="yes"/>
      <point x="105" y="681"/>
      <point x="134" y="710"/>
      <point x="170" y="710" type="curve" smooth="yes"/>
      <point x="205" y="710"/>
      <point x="235" y="682"/>
      <point x="235" y="645" type="curve" smooth="yes"/>
    </contour>
    <contour>
      <point x="170" y="511" type="move" name="_top"/>
    </contour>
  </outline>
</glyph>
<glyph name="ogonek" format="1">
  <advance width="340"/>
  <unicode hex="02DB"/>
  <outline>
    <contour>
      <point x="237" y="-86" type="line"/>
      <point x="216" y="-93"/>
      <point x="194" y="-100"/>
      <point x="170" y="-100" type="curve" smooth="yes"/>
      <point x="149" y="-100"/>
      <point x="126" y="-91"/>
      <point x="126" y="-60" type="curve" smooth="yes"/>
      <point x="126" y="-33"/>
      <point x="150" y="-16"/>
      <point x="170" y="-2" type="curve" smooth="yes"/>
      <point x="173" y="0" type="line"/>
      <point x="123" y="0" type="line"/>
      <point x="99" y="-16"/>
      <point x="69" y="-39"/>
      <point x="69" y="-71" type="curve" smooth="yes"/>
      <point x="69" y="-126"/>
      <point x="120" y="-143"/>
      <point x="166" y="-143" type="curve" smooth="yes"/>
      <point x="195" y="-143"/>
      <point x="224" y="-135"/>
      <point x="250" y="-119" type="curve"/>
    </contour>
    <contour>
      <point x="175" y="10" type="move" name="_ogonek"/>
    </contour>
  </outline>
</glyph>
<glyph name="tilde" format="1">
  <advance width="364"/>
  <unicode hex="02DC"/>
  <outline>
    <contour>
      <point x="324" y="716" type="line"/>
      <point x="317" y="693"/>
      <point x="300" y="684"/>
      <point x="267" y="684" type="curve" smooth="yes"/>
      <point x="213" y="684"/>
      <point x="164" y="716"/>
      <point x="100" y="716" type="curve" smooth="yes"/>
      <point x="22" y="716"/>
      <point x="-1" y="666"/>
      <point x="-1" y="634" type="curve"/>
      <point x="36" y="634" type="line"/>
      <point x="43" y="657"/>
      <point x="60" y="666"/>
      <point x="93" y="666" type="curve" smooth="yes"/>
      <point x="147" y="666"/>
      <point x="196" y="634"/>
      <point x="260" y="634" type="curve" smooth="yes"/>
      <point x="339" y="634"/>
      <point x="361" y="684"/>
      <point x="361" y="716" type="curve"/>
    </contour>
    <contour>
      <point x="180" y="511" type="move" name="_top"/>
    </contour>
  </outline>
</glyph>
<glyph name="hungarumlaut" format="1">
  <advance width="442"/>
  <unicode hex="02DD"/>
  <outline>
    <contour>
      <point x="101" y="575" type="line"/>
      <point x="212" y="717" type="line"/>
      <point x="211" y="720" type="line"/>
      <point x="147" y="720" type="line"/>
      <point x="51" y="575" type="line"/>
    </contour>
    <contour>
      <point x="226" y="575" type="line"/>
      <point x="337" y="717" type="line"/>
      <point x="336" y="720" type="line"/>
      <point x="272" y="720" type="line"/>
      <point x="176" y="575" type="line"/>
    </contour>
    <contour>
      <point x="134" y="511" type="move" name="_top"/>
    </contour>
  </outline>
</glyph>
<glyph name="Delta" format="1">
  <advance width="701"/>
  <unicode hex="0394"/>
  <outline>
    <contour>
      <point x="67" y="0" type="line"/>
      <point x="634" y="0" type="line"/>
      <point x="634" y="48" type="line"/>
      <point x="394" y="686" type="line"/>
      <point x="306" y="686" type="line"/>
      <point x="67" y="48" type="line"/>
    </contour>
    <contour>
      <point x="350" y="639" type="line"/>
      <point x="569" y="55" type="line"/>
      <point x="131" y="55" type="line"/>
    </contour>
  </outline>
</glyph>
<glyph name="mu" format="1">
  <advance width="612"/>
  <unicode hex="03BC"/>
  <outline>
    <contour>
      <point x="189" y="36"/>
      <point x="133" y="87"/>
      <point x="133" y="189" type="curve" smooth="yes"/>
      <point x="133" y="511" type="line"/>
      <point x="82" y="511" type="line"/>
      <point x="82" y="-161" type="line"/>
      <point x="133" y="-161" type="line"/>
      <point x="133" y="1" type="line" smooth="yes"/>
      <point x="133" y="22"/>
      <point x="127" y="51"/>
      <point x="127" y="51" type="curve"/>
      <point x="159" y="9"/>
      <point x="217" y="-10"/>
      <point x="272" y="-10" type="curve" smooth="yes"/>
      <point x="339" y="-10"/>
      <point x="399" y="22"/>
      <point x="434" y="76" type="curve"/>
      <point x="434" y="36"/>
      <point x="449" y="-10"/>
      <point x="498" y="-10" type="curve" smooth="yes"/>
      <point x="522" y="-10"/>
      <point x="544" y="-3"/>
      <point x="562" y="9" type="curve"/>
      <point x="562" y="52" type="line"/>
      <point x="547" y="43"/>
      <point x="527" y="36"/>
      <point x="512" y="36" type="curve" smooth="yes"/>
      <point x="497" y="36"/>
      <point x="485" y="45"/>
      <point x="485" y="69" type="curve" smooth="yes"/>
      <point x="485" y="511" type="line"/>
      <point x="434" y="511" type="line"/>
      <point x="434" y="197" type="line" smooth="yes"/>
      <point x="434" y="105"/>
      <point x="367" y="36"/>
      <point x="277" y="36" type="curve" smooth="yes"/>
    </contour>
  </outline>
</glyph>
<glyph name="endash" format="1">
  <advance width="638"/>
  <unicode hex="2013"/>
  <outline>
    <contour>
      <point x="569" y="239" type="line"/>
      <point x="569" y="297" type="line"/>
      <point x="69" y="297" type="line"/>
      <point x="69" y="239" type="line"/>
    </contour>
  </outline>
</glyph>
<glyph name="quoteleft" format="1">
  <advance width="224"/>
  <unicode hex="2018"/>
  <outline>
    <contour>
      <point x="91" y="686" type="line"/>
      <point x="61" y="574" type="line"/>
      <point x="61" y="516" type="line"/>
      <point x="126" y="516" type="line"/>
      <point x="126" y="585" type="line"/>
      <point x="102" y="585" type="line" smooth="yes"/>
      <point x="102" y="585"/>
      <point x="124" y="686"/>
      <point x="125" y="686" type="curve"/>
    </contour>
  </outline>
</glyph>
<glyph name="quotesinglbase" format="1">
  <advance width="238"/>
  <unicode hex="201A"/>
  <outline>
    <contour>
      <point x="104" y="-101" type="line"/>
      <point x="134" y="11" type="line"/>
      <point x="134" y="69" type="line"/>
      <point x="69" y="69" type="line"/>
      <point x="69" y="0" type="line"/>
      <point x="93" y="0" type="line"/>
      <point x="93" y="0"/>
      <point x="71" y="-101"/>
      <point x="70" y="-101" type="curve"/>
    </contour>
  </outline>
</glyph>
<glyph name="quotedblleft" format="1">
  <advance width="366"/>
  <unicode hex="201C"/>
  <outline>
    <contour>
      <point x="190" y="686" type="line"/>
      <point x="160" y="574" type="line"/>
      <point x="160" y="516" type="line"/>
      <point x="225" y="516" type="line"/>
      <point x="225" y="585" type="line"/>
      <point x="201" y="585" type="line" smooth="yes"/>
      <point x="201" y="585"/>
      <point x="223" y="686"/>
      <point x="224" y="686" type="curve"/>
    </contour>
    <contour>
      <point x="91" y="686" type="line"/>
      <point x="61" y="574" type="line"/>
      <point x="61" y="516" type="line"/>
      <point x="126" y="516" type="line"/>
      <point x="126" y="585" type="line"/>
      <point x="102" y="585" type="line" smooth="yes"/>
      <point x="102" y="585"/>
      <point x="124" y="686"/>
      <point x="125" y="686" type="curve"/>
    </contour>
  </outline>
</glyph>
<glyph name="quotedblbase" format="1">
  <advance width="380"/>
  <unicode hex="201E"/>
  <outline>
    <contour>
      <point x="104" y="-101" type="line"/>
      <point x="134" y="11" type="line"/>
      <point x="134" y="69" type="line"/>
      <point x="69" y="69" type="line"/>
      <point x="69" y="0" type="line"/>
      <point x="93" y="0" type="line"/>
      <point x="93" y="0"/>
      <point x="71" y="-101"/>
      <point x="70" y="-101" type="curve"/>
    </contour>
    <contour>
      <point x="203" y="-101" type="line"/>
      <point x="233" y="11" type="line"/>
      <point x="233" y="69" type="line"/>
      <point x="168" y="69" type="line"/>
      <point x="168" y="0" type="line"/>
      <point x="192" y="0" type="line"/>
      <point x="192" y="0"/>
      <point x="170" y="-101"/>
      <point x="169" y="-101" type="curve"/>
    </contour>
  </outline>
</glyph>
<glyph name="dagger" format="1">
  <advance width="510"/>
  <unicode hex="2020"/>
  <outline>
    <contour>
      <point x="464" y="446" type="line"/>
      <point x="464" y="510" type="line"/>
      <point x="260" y="494" type="line"/>
      <point x="276" y="686" type="line"/>
      <point x="211" y="686" type="line"/>
      <point x="227" y="494" type="line"/>
      <point x="23" y="510" type="line"/>
      <point x="23" y="446" type="line"/>
      <point x="227" y="462" type="line"/>
      <point x="211" y="-175" type="line"/>
      <point x="276" y="-175" type="line"/>
      <point x="260" y="462" type="line"/>
    </contour>
  </outline>
</glyph>
<glyph name="daggerdbl" format="1">
  <advance width="533"/>
  <unicode hex="2021"/>
  <outline>
    <contour>
      <point x="272" y="48" type="line"/>
      <point x="288" y="256" type="line"/>
      <point x="272" y="462" type="line"/>
      <point x="476" y="446" type="line"/>
      <point x="476" y="510" type="line"/>
      <point x="272" y="494" type="line"/>
      <point x="288" y="686" type="line"/>
      <point x="223" y="686" type="line"/>
      <point x="239" y="494" type="line"/>
      <point x="35" y="510" type="line"/>
      <point x="35" y="446" type="line"/>
      <point x="239" y="462" type="line"/>
      <point x="223" y="256" type="line"/>
      <point x="239" y="48" type="line"/>
      <point x="35" y="64" type="line"/>
      <point x="35" y="0" type="line"/>
      <point x="239" y="16" type="line"/>
      <point x="223" y="-176" type="line"/>
      <point x="288" y="-176" type="line"/>
      <point x="272" y="16" type="line"/>
      <point x="476" y="0" type="line"/>
      <point x="476" y="64" type="line"/>
    </contour>
  </outline>
</glyph>
<glyph name="fraction" format="1">
  <advance width="476"/>
  <unicode hex="2044"/>
  <outline>
    <contour>
      <point x="466" y="686" type="line"/>
      <point x="422" y="686" type="line"/>
      <point x="2" y="0" type="line"/>
      <point x="49" y="0" type="line"/>
    </contour>
  </outline>
</glyph>
<glyph name="uni2113" format="1">
  <advance width="468"/>
  <unicode hex="2113"/>
  <outline>
    <contour>
      <point x="168" y="510" type="line" smooth="yes"/>
      <point x="168" y="603"/>
      <point x="200" y="655"/>
      <point x="257" y="655" type="curve" smooth="yes"/>
      <point x="311" y="655"/>
      <point x="351" y="609"/>
      <point x="351" y="518" type="curve" smooth="yes"/>
      <point x="351" y="490" type="line" smooth="yes"/>
      <point x="351" y="350"/>
      <point x="265" y="275"/>
      <point x="148" y="275" type="curve"/>
      <point x="148" y="230" type="line"/>
      <point x="298" y="230"/>
      <point x="401" y="325"/>
      <point x="401" y="490" type="curve" smooth="yes"/>
      <point x="401" y="518" type="line" smooth="yes"/>
      <point x="401" y="636"/>
      <point x="343" y="700"/>
      <point x="258" y="700" type="curve" smooth="yes"/>
      <point x="171" y="700"/>
      <point x="117" y="634"/>
      <point x="117" y="512" type="curve" smooth="yes"/>
      <point x="117" y="460" type="line"/>
      <point x="168" y="460" type="line"/>
    </contour>
    <contour>
      <point x="35" y="230" type="line"/>
      <point x="133" y="230" type="line"/>
      <point x="133" y="275" type="line"/>
      <point x="35" y="275" type="line"/>
    </contour>
    <contour>
      <point x="337" y="52" type="line"/>
      <point x="313" y="45"/>
      <point x="275" y="36"/>
      <point x="244" y="36" type="curve" smooth="yes"/>
      <point x="209" y="36"/>
      <point x="168" y="48"/>
      <point x="168" y="133" type="curve" smooth="yes"/>
      <point x="168" y="510" type="line"/>
      <point x="117" y="512" type="line"/>
      <point x="117" y="131" type="line" smooth="yes"/>
      <point x="117" y="33"/>
      <point x="172" y="-10"/>
      <point x="249" y="-10" type="curve" smooth="yes"/>
      <point x="280" y="-10"/>
      <point x="315" y="-3"/>
      <point x="337" y="7" type="curve"/>
    </contour>
  </outline>
</glyph>
<glyph name="product" format="1">
  <advance width="749"/>
  <unicode hex="220F"/>
  <outline>
    <contour>
      <point x="665" y="647" type="line"/>
      <point x="665" y="695" type="line"/>
      <point x="24" y="695" type="line"/>
      <point x="24" y="647" type="line"/>
      <point x="138" y="647" type="line"/>
      <point x="138" y="-96" type="line"/>
      <point x="194" y="-96" type="line"/>
      <point x="194" y="647" type="line"/>
      <point x="495" y="647" type="line"/>
      <point x="495" y="-96" type="line"/>
      <point x="551" y="-96" type="line"/>
      <point x="551" y="647" type="line"/>
    </contour>
  </outline>
</glyph>
<glyph name="infinity" format="1">
  <advance width="764"/>
  <unicode hex="221E"/>
  <outline>
    <contour>
      <point x="703" y="370"/>
      <point x="646" y="432"/>
      <point x="560" y="432" type="curve" smooth="yes"/>
      <point x="482" y="432"/>
      <point x="432" y="377"/>
      <point x="382" y="322" type="curve" smooth="yes"/>
      <point x="374" y="313" type="line"/>
      <point x="322" y="374"/>
      <point x="265" y="432"/>
      <point x="190" y="432" type="curve" smooth="yes"/>
      <point x="102" y="432"/>
      <point x="37" y="367"/>
      <point x="37" y="278" type="curve" smooth="yes"/>
      <point x="37" y="193"/>
      <point x="104" y="126"/>
      <point x="183" y="126" type="curve" smooth="yes"/>
      <point x="264" y="126"/>
      <point x="319" y="185"/>
      <point x="371" y="245" type="curve"/>
      <point x="441" y="167"/>
      <point x="490" y="126"/>
      <point x="553" y="126" type="curve" smooth="yes"/>
      <point x="631" y="126"/>
      <point x="703" y="187"/>
      <point x="703" y="282" type="curve" smooth="yes"/>
    </contour>
    <contour>
      <point x="125" y="169"/>
      <point x="83" y="218"/>
      <point x="83" y="277" type="curve" smooth="yes"/>
      <point x="83" y="337"/>
      <point x="120" y="391"/>
      <point x="183" y="391" type="curve" smooth="yes"/>
      <point x="252" y="391"/>
      <point x="298" y="336"/>
      <point x="341" y="284" type="curve"/>
      <point x="347" y="276" type="line"/>
      <point x="305" y="233"/>
      <point x="255" y="169"/>
      <point x="190" y="169" type="curve" smooth="yes"/>
    </contour>
    <contour>
      <point x="613" y="391"/>
      <point x="657" y="349"/>
      <point x="657" y="278" type="curve" smooth="yes"/>
      <point x="657" y="225"/>
      <point x="621" y="169"/>
      <point x="557" y="169" type="curve" smooth="yes"/>
      <point x="503" y="169"/>
      <point x="464" y="208"/>
      <point x="397" y="281" type="curve"/>
      <point x="433" y="316"/>
      <point x="487" y="391"/>
      <point x="555" y="391" type="curve" smooth="yes"/>
    </contour>
  </outline>
</glyph>
<glyph name="integral" format="1">
  <advance width="267"/>
  <unicode hex="222B"/>
  <outline>
    <contour>
      <point x="83" y="486"/>
      <point x="111" y="-144"/>
      <point x="111" y="-144" type="curve"/>
      <point x="111" y="-191"/>
      <point x="54" y="-212"/>
      <point x="26" y="-212" type="curve"/>
      <point x="26" y="-250" type="line"/>
      <point x="84" y="-250"/>
      <point x="156" y="-222"/>
      <point x="156" y="-138" type="curve" smooth="yes"/>
      <point x="156" y="14"/>
      <point x="127" y="646"/>
      <point x="127" y="646" type="curve"/>
      <point x="127" y="691"/>
      <point x="187" y="712"/>
      <point x="215" y="712" type="curve"/>
      <point x="215" y="750" type="line"/>
      <point x="157" y="750"/>
      <point x="83" y="719"/>
      <point x="83" y="638" type="curve" smooth="yes"/>
    </contour>
  </outline>
</glyph>
<glyph name="approxequal" format="1">
  <advance width="615"/>
  <unicode hex="2248"/>
  <outline>
    <contour>
      <point x="589" y="423" type="line"/>
      <point x="589" y="423"/>
      <point x="521" y="345"/>
      <point x="426" y="345" type="curve" smooth="yes"/>
      <point x="338" y="345"/>
      <point x="273" y="411"/>
      <point x="188" y="411" type="curve" smooth="yes"/>
      <point x="93" y="411"/>
      <point x="25" y="333"/>
      <point x="25" y="333" type="curve"/>
      <point x="25" y="273" type="line"/>
      <point x="25" y="273"/>
      <point x="93" y="351"/>
      <point x="188" y="351" type="curve" smooth="yes"/>
      <point x="276" y="351"/>
      <point x="341" y="285"/>
      <point x="426" y="285" type="curve" smooth="yes"/>
      <point x="521" y="285"/>
      <point x="589" y="363"/>
      <point x="589" y="363" type="curve"/>
    </contour>
    <contour>
      <point x="589" y="221" type="line"/>
      <point x="589" y="221"/>
      <point x="521" y="143"/>
      <point x="426" y="143" type="curve" smooth="yes"/>
      <point x="338" y="143"/>
      <point x="273" y="209"/>
      <point x="188" y="209" type="curve" smooth="yes"/>
      <point x="93" y="209"/>
      <point x="25" y="131"/>
      <point x="25" y="131" type="curve"/>
      <point x="25" y="71" type="line"/>
      <point x="25" y="71"/>
      <point x="93" y="149"/>
      <point x="188" y="149" type="curve" smooth="yes"/>
      <point x="276" y="149"/>
      <point x="341" y="83"/>
      <point x="426" y="83" type="curve" smooth="yes"/>
      <point x="521" y="83"/>
      <point x="589" y="161"/>
      <point x="589" y="161" type="curve"/>
    </contour>
  </outline>
</glyph>
<glyph name="notequal" format="1">
  <advance width="615"/>
  <unicode hex="2260"/>
  <outline>
    <contour>
      <point x="515" y="511" type="line"/>
      <point x="447" y="511" type="line"/>
      <point x="361" y="386" type="line"/>
      <point x="56" y="386" type="line"/>
      <point x="56" y="328" type="line"/>
      <point x="322" y="328" type="line"/>
      <point x="219" y="178" type="line"/>
      <point x="56" y="178" type="line"/>
      <point x="56" y="120" type="line"/>
      <point x="180" y="120" type="line"/>
      <point x="98" y="0" type="line"/>
      <point x="169" y="0" type="line"/>
      <point x="250" y="120" type="line"/>
      <point x="556" y="120" type="line"/>
      <point x="556" y="178" type="line"/>
      <point x="289" y="178" type="line"/>
      <point x="391" y="328" type="line"/>
      <point x="556" y="328" type="line"/>
      <point x="556" y="386" type="line"/>
      <point x="430" y="386" type="line"/>
    </contour>
  </outline>
</glyph>
<glyph name="lessequal" format="1">
  <advance width="615"/>
  <unicode hex="2264"/>
  <outline>
    <contour>
      <point x="50" y="256" type="line"/>
      <point x="559" y="79" type="line"/>
      <point x="559" y="141" type="line"/>
      <point x="97" y="300" type="line"/>
      <point x="559" y="459" type="line"/>
      <point x="559" y="521" type="line"/>
      <point x="50" y="344" type="line"/>
    </contour>
    <contour>
      <point x="49" y="0" type="line"/>
      <point x="559" y="0" type="line"/>
      <point x="559" y="57" type="line"/>
      <point x="49" y="57" type="line"/>
    </contour>
  </outline>
</glyph>
<glyph name="lozenge" format="1">
  <advance width="490"/>
  <unicode hex="25CA"/>
  <outline>
    <contour>
      <point x="279" y="0" type="line"/>
      <point x="441" y="343" type="line"/>
      <point x="279" y="686" type="line"/>
      <point x="191" y="686" type="line"/>
      <point x="29" y="343" type="line"/>
      <point x="191" y="0" type="line"/>
    </contour>
    <contour>
      <point x="235" y="639" type="line"/>
      <point x="379" y="343" type="line"/>
      <point x="235" y="47" type="line"/>
      <point x="91" y="343" type="line"/>
    </contour>
  </outline>
</glyph>
